<?xml version="1.0" standalone="no"?>
<!DOCTYPE svg PUBLIC "-//W3C//DTD SVG 20010904//EN"
 "http://www.w3.org/TR/2001/REC-SVG-20010904/DTD/svg10.dtd">
<svg version="1.0" xmlns="http://www.w3.org/2000/svg"
 width="2800.000000pt" height="1762.000000pt" viewBox="0 0 2800.000000 1762.000000"
 preserveAspectRatio="xMidYMid meet">

<g transform="translate(0.000000,1762.000000) scale(0.100000,-0.100000)"
fill="#0078d7" stroke="none">
<path d="M15700 10778 c-235 -9 -666 -41 -850 -63 -679 -83 -1154 -175 -1655
-320 -752 -218 -1474 -558 -1890 -892 -318 -254 -536 -556 -617 -850 -18 -64
-21 -107 -22 -243 -1 -142 2 -177 22 -249 93 -341 404 -649 863 -857 235 -106
459 -176 804 -253 287 -64 681 -127 980 -156 33 -3 78 -8 100 -10 101 -12 481
-35 685 -42 432 -15 1324 -8 1576 12 32 3 154 12 269 20 116 9 228 18 250 20
22 3 128 14 235 25 252 26 467 55 655 86 1190 198 2000 535 2537 1053 60 57
108 107 108 112 0 5 -654 9 -1452 9 l-1453 0 -105 -66 c-284 -179 -586 -289
-955 -346 -213 -33 -761 -32 -1060 2 -293 34 -531 99 -719 198 -165 86 -285
271 -286 438 0 127 92 363 213 547 93 141 268 325 406 426 348 256 786 400
1371 450 173 15 737 6 860 -13 378 -61 628 -170 829 -361 l79 -76 1268 3 c698
1 1338 4 1423 6 l154 3 -6 62 c-24 248 -187 519 -415 689 -201 151 -527 290
-887 378 -339 84 -884 160 -1565 220 -496 43 -1215 59 -1750 38z"/>
<path d="M1751 10579 c-21 -46 -69 -151 -106 -234 -73 -164 -117 -262 -193
-430 -27 -60 -91 -202 -142 -315 -51 -113 -104 -230 -118 -260 -14 -30 -46
-102 -72 -160 -51 -115 -315 -698 -385 -850 -24 -52 -98 -216 -165 -365 -438
-971 -450 -999 -431 -1006 16 -7 2270 -8 2757 -2 l252 4 30 72 c70 167 155
365 236 552 161 369 219 499 261 595 23 52 57 130 75 173 l32 77 1464 0 c1014
0 1464 -3 1464 -10 0 -6 -35 -91 -79 -188 -139 -313 -288 -645 -314 -702 -70
-153 -153 -334 -188 -411 -21 -48 -46 -100 -54 -115 -13 -26 -13 -29 3 -39 16
-9 2464 -16 2883 -7 l167 3 22 52 c21 50 102 229 200 447 26 58 78 173 115
255 37 83 118 263 180 400 62 138 143 318 180 400 37 83 89 197 115 255 27 58
112 247 190 420 78 173 161 358 185 410 44 95 217 478 359 795 43 94 85 188
95 210 l19 40 -1536 3 c-845 1 -1539 -1 -1543 -5 -4 -5 -33 -66 -64 -138 -32
-71 -78 -175 -102 -230 -25 -55 -60 -133 -79 -173 -19 -41 -34 -75 -34 -77 0
-6 -167 -380 -256 -574 l-20 -45 -1460 3 c-802 1 -1460 4 -1461 5 -1 1 61 143
138 316 78 173 163 365 189 425 53 121 128 287 184 409 20 44 35 81 33 83 -2
1 -675 6 -1495 10 l-1492 6 -39 -84z"/>
<path d="M21740 10598 c-15 -35 -56 -123 -89 -196 -34 -73 -61 -134 -61 -136
0 -3 -39 -89 -86 -193 -47 -103 -113 -248 -145 -320 -129 -290 -180 -403 -234
-523 -32 -69 -83 -183 -115 -255 -32 -71 -108 -242 -170 -380 -137 -303 -224
-497 -300 -670 -158 -358 -266 -600 -311 -698 -27 -59 -49 -110 -49 -112 0 -3
-16 -39 -35 -81 -19 -41 -35 -77 -35 -80 0 -2 1657 -3 3682 -2 l3683 3 86 190
c207 457 309 685 309 694 0 6 -754 10 -2127 11 -1170 0 -2129 3 -2131 5 -5 5
10 43 93 225 96 211 195 431 237 525 22 50 51 115 65 145 23 50 82 180 198
440 24 52 93 208 155 345 62 138 149 333 195 435 205 458 259 578 281 628 13
29 24 55 24 57 0 3 -695 5 -1546 5 l-1545 0 -29 -62z"/>
</g>
</svg>
